<svg width="766" height="250" viewBox="0 0 766 250" fill="none" xmlns="http://www.w3.org/2000/svg">
<g id="Group 10">
<path id="Path 3" fill-rule="evenodd" clip-rule="evenodd" d="M374.872 -24.4869C291.784 -50.5171 206.349 -93.9334 118.882 -14.6328C31.415 64.6677 -23.5749 134.135 11.936 224.016C47.4468 313.897 192.399 257.914 234.515 338.246C276.632 418.578 184.092 491.487 223.988 562.982C263.884 634.478 294.561 680.3 422.773 634.841C550.985 589.382 539.164 473.714 636.664 405.98C734.163 338.246 839.651 236.846 694.885 55.9105C550.119 -125.025 457.96 1.54328 374.872 -24.4869Z" stroke="#9E96C6"/>
<path id="Path 3 Copy" fill-rule="evenodd" clip-rule="evenodd" d="M384.985 16.8388C317.428 -4.29932 247.963 -39.556 176.846 24.8409C105.73 89.2379 61.0189 145.649 89.8917 218.638C118.765 291.628 236.621 246.165 270.865 311.4C305.108 376.635 229.867 435.841 262.305 493.9C294.744 551.959 319.686 589.169 423.932 552.254C528.178 515.338 518.566 421.408 597.84 366.404C677.114 311.4 762.883 229.057 645.178 82.1265C527.473 -64.804 452.541 37.9769 384.985 16.8388Z" stroke="#9E96C6"/>
<path id="Path 3 Copy 2" fill-rule="evenodd" clip-rule="evenodd" d="M404.804 45.5094C349.955 28.2776 293.557 -0.463614 235.817 52.0327C178.078 104.529 141.777 150.515 165.219 210.016C188.661 269.517 284.348 232.456 312.151 285.636C339.953 338.815 278.865 387.08 305.201 434.409C331.538 481.738 351.788 512.072 436.425 481.979C521.062 451.885 513.259 375.314 577.621 330.475C641.983 285.636 711.619 218.509 616.055 98.7318C520.49 -21.0458 459.653 62.7411 404.804 45.5094Z" stroke="#9E96C6"/>
<path id="Path 3 Copy 5" fill-rule="evenodd" clip-rule="evenodd" d="M424.91 78.8772C380.705 65.0407 335.251 41.9625 288.716 84.1152C242.182 126.268 212.926 163.194 231.818 210.971C250.711 258.748 327.829 228.989 350.236 271.69C372.643 314.392 323.41 353.147 344.636 391.15C365.861 429.154 382.182 453.511 450.394 429.347C518.607 405.183 512.317 343.699 564.19 307.695C616.062 271.69 672.184 217.79 595.165 121.613C518.146 25.4357 469.115 92.7138 424.91 78.8772Z" stroke="#9E96C6"/>
<path id="Path 3 Copy 4" fill-rule="evenodd" clip-rule="evenodd" d="M430.256 100.44C394.196 89.123 357.119 70.2464 319.159 104.725C281.2 139.203 257.335 169.406 272.746 208.485C288.157 247.564 351.065 223.223 369.343 258.15C387.621 293.078 347.46 324.777 364.774 355.862C382.088 386.947 395.402 406.869 451.044 387.105C506.686 367.34 501.556 317.049 543.87 287.6C586.183 258.15 631.963 214.063 569.137 135.396C506.311 56.7284 466.315 111.758 430.256 100.44Z" stroke="#9E96C6"/>
<path id="Path 3 Copy 3" fill-rule="evenodd" clip-rule="evenodd" d="M440.955 116.502C411.63 107.338 381.476 92.0543 350.605 119.971C319.735 147.887 300.327 172.342 312.86 203.983C325.393 235.624 376.553 215.916 391.417 244.196C406.282 272.476 373.621 298.142 387.702 323.311C401.783 348.48 412.61 364.61 457.861 348.607C503.112 332.604 498.94 291.885 533.352 268.041C567.763 244.196 604.994 208.5 553.901 144.804C502.807 81.1091 470.28 125.665 440.955 116.502Z" stroke="#9E96C6"/>
</g>
</svg>
