<svg width="699" height="393" viewBox="0 0 699 393" fill="none" xmlns="http://www.w3.org/2000/svg">
<g id="Group 22">
<path id="Path 3" fill-rule="evenodd" clip-rule="evenodd" d="M357.361 360.675C433.064 384.368 510.904 423.887 590.596 351.705C670.289 279.523 720.39 216.291 688.036 134.478C655.682 52.6645 523.614 103.623 485.242 30.5012C446.869 -42.6205 531.183 -108.984 494.833 -174.062C458.484 -239.14 430.534 -280.849 313.718 -239.471C196.902 -198.092 207.673 -92.8066 118.84 -31.1527C30.0071 30.5012 -66.1041 122.8 65.7937 287.494C197.691 452.188 281.659 336.981 357.361 360.675Z" stroke="#E4E4E4"/>
<path id="Path 3 Copy" fill-rule="evenodd" clip-rule="evenodd" d="M347.895 322.751C409.478 341.991 472.8 374.081 537.629 315.468C602.457 256.854 643.214 205.509 616.895 139.075C590.575 72.6412 483.14 114.02 451.924 54.6443C420.708 -4.7319 489.296 -58.6207 459.726 -111.465C430.157 -164.31 407.42 -198.178 312.392 -164.578C217.364 -130.978 226.125 -45.4839 153.861 4.58017C81.5969 54.6442 3.41175 129.592 110.709 263.327C218.006 397.062 286.312 303.511 347.895 322.751Z" stroke="#E4E4E4"/>
<path id="Path 3 Copy 2" fill-rule="evenodd" clip-rule="evenodd" d="M330.188 297.583C380.15 313.281 431.522 339.465 484.117 291.64C536.711 243.815 569.777 201.92 548.424 147.714C527.071 93.508 439.91 127.271 414.586 78.8236C389.261 30.3762 444.905 -13.5937 420.916 -56.7116C396.926 -99.8295 378.48 -127.464 301.385 -100.048C224.29 -72.6327 231.398 -2.87491 172.771 37.9743C114.144 78.8236 50.7132 139.977 137.762 249.096C224.811 358.215 280.227 281.884 330.188 297.583Z" stroke="#E4E4E4"/>
<path id="Path 3 Copy 5" fill-rule="evenodd" clip-rule="evenodd" d="M311.684 266.816C351.979 279.412 393.412 300.419 435.831 262.048C478.25 223.677 504.918 190.064 487.696 146.573C470.475 103.082 400.178 130.171 379.753 91.3003C359.328 52.4298 404.206 17.1516 384.858 -17.443C365.51 -52.0376 350.633 -74.2096 288.454 -52.2133C226.275 -30.217 232.008 25.7515 184.724 58.5259C137.44 91.3003 86.2818 140.365 156.488 227.914C226.695 315.464 271.389 254.221 311.684 266.816Z" stroke="#E4E4E4"/>
<path id="Path 3 Copy 4" fill-rule="evenodd" clip-rule="evenodd" d="M306.917 246.954C339.827 257.249 373.666 274.421 408.31 243.057C442.953 211.692 464.734 184.217 450.668 148.668C436.603 113.119 379.191 135.261 362.51 103.489C345.828 71.7165 382.481 42.8804 366.679 14.6031C350.877 -13.6742 338.727 -31.7974 287.945 -13.8178C237.163 4.1618 241.845 49.9099 203.227 76.6994C164.61 103.489 122.829 143.594 180.167 215.156C237.506 286.718 274.008 236.659 306.917 246.954Z" stroke="#E4E4E4"/>
<path id="Path 3 Copy 3" fill-rule="evenodd" clip-rule="evenodd" d="M297.775 232.594C324.493 240.954 351.966 254.899 380.093 229.429C408.22 203.959 425.903 181.648 414.483 152.78C403.064 123.912 356.452 141.893 342.909 116.092C329.365 90.2911 359.123 66.8745 346.294 43.9117C333.465 20.949 323.6 6.23189 282.371 20.8324C241.142 35.4328 244.943 72.5829 213.591 94.3375C182.238 116.092 148.316 148.66 194.868 206.772C241.421 264.884 271.056 224.234 297.775 232.594Z" stroke="#E4E4E4"/>
</g>
</svg>
